<svg xmlns="http://www.w3.org/2000/svg" width="23.998" height="19.943" viewBox="0 0 23.998 19.943">
                                    <path id="Path_26065" data-name="Path 26065" d="M17522.488,7115.44a.784.784,0,0,1-.766-.625l-2.217-10.716h-.412a.781.781,0,1,1,0-1.562h2.643c.016-.047.035-.1.057-.145l3.125-6.452a.78.78,0,1,1,1.4.681l-2.865,5.916h13.7l-2.865-5.916a.783.783,0,0,1,1.41-.681l3.125,6.452a.8.8,0,0,1,.051.145h2.648a.781.781,0,0,1,0,1.563h-.416l-2.215,10.716a.788.788,0,0,1-.77.625Zm.637-1.565h14.365l2.025-9.775H17521.1Zm10.313-3.253v-3.783a.781.781,0,1,1,1.563,0v3.783a.781.781,0,0,1-1.562,0Zm-3.912,0v-3.783a.782.782,0,1,1,1.564,0v3.783a.782.782,0,0,1-1.564,0Zm-3.908,0v-3.783a.781.781,0,1,1,1.563,0v3.783a.781.781,0,0,1-1.562,0Z" transform="translate(-17518.311 -7095.497)"></path>
                                </svg>
