<svg xmlns="http://www.w3.org/2000/svg" viewBox="0 0 167.658 27.084">
						<g class="logo-icon" transform="translate(-24.72 -24.46)">
							<path id="Path_358" data-name="Path 358" d="M7296.14-10581.615v0l7.868-6.383a10.128,10.128,0,0,1-1.488,14.251l0,0-7.868,6.38A10.137,10.137,0,0,1,7296.14-10581.615Z" transform="translate(-7264.877 10612.461)" fill="#4949e9"></path>
							<path id="Path_359" data-name="Path 359" d="M7296.323-10572.27a33.968,33.968,0,0,1-3.869-.6.077.077,0,0,1-.032-.135c.059-.051.138-.12.236-.21l.609-.519c.741-.638,1.854-1.584,3.175-2.694.476-.4.98-.829,1.515-1.272,2.314-1.927,5.03-4.146,7.451-6.027.415-.324.832-.638,1.233-.933l.236-.178v-.014l.1-.074a31.3,31.3,0,0,1,3.933-2.636c.032-.014.062-.043.09-.059a3.389,3.389,0,0,1,2.2-.327,5.106,5.106,0,0,1,1.36.45h0l2.227,1.018c.191.088.12.486-.085.54a2.975,2.975,0,0,0-2.27,2.474l.005-.166a14.774,14.774,0,0,1-1,3.487c-.165.386-.343.758-.534,1.127a.015.015,0,0,0-.016.016,12.9,12.9,0,0,1-3.295,3.98c-2.82,2.3-6.809,2.9-10.241,2.9C7298.269-10572.124,7297.242-10572.184,7296.323-10572.27Z" transform="translate(-7267.675 10623.668)" fill="#4949e9"></path>
						</g>
						<g class="logo-text" transform="translate(-24.72 -24.46)">
							<path id="Path_360" data-name="Path 360" d="M7295.535-10578.051a3.312,3.312,0,0,1-3.142-3.307h3.1c.483-4.083,3.2-6.644,7.6-6.644,4.831,0,7.456,2.977,7.456,8.8v.673h-10.493c.127,1.982,1.342,3.422,3.1,3.422a2.4,2.4,0,0,0,2.432-1.373h4.767a6.875,6.875,0,0,1-6.973,5.054C7298.717-10571.428,7296.1-10573.65,7295.535-10578.051Zm4.617-3.262h5.758c-.127-2.081-1.281-3.008-2.88-3.008S7300.312-10583.3,7300.152-10581.312Z" transform="translate(-7236.744 10620.391)" fill="#4949e9" style="opacity: 1;"></path>
							<path id="Path_265" data-name="Path 265" d="M88.164,38.179v4.479c0,3.327-1.791,6.3-6.462,6.3-4.735,0-6.494-2.911-6.494-6.334V29.144h4.543V32.8h8.414v3.263H79.751v6.366c0,1.632.608,2.5,2.047,2.5,1.408,0,2.047-.864,2.047-2.463V38.179Z" fill="#4949e9" style="opacity: 1;"></path>
							<path id="Path_264" data-name="Path 264" d="M104.226,48.544h-4.67V38.691c0-1.951-.768-2.623-2.4-2.623-1.759,0-2.751,1.152-2.751,2.975v9.5H89.767v-21.5h4.639V34.66a4.673,4.673,0,0,1,4.383-2.271c3.2,0,5.438,1.983,5.438,4.895Z" fill="#4949e9" style="opacity: 1;"></path>
							<path id="Path_361" data-name="Path 361" d="M7295.255-10566.512v-15.739h4.64v15.739Zm.89-17.737V-10588a3.751,3.751,0,0,1,3.75,3.752Zm-3.752-3.752h3.752v3.752A3.753,3.753,0,0,1,7292.394-10588Z" transform="translate(-7189.213 10615.057)" fill="#4949e9" style="opacity: 1;"></path>
							<path id="Path_262" data-name="Path 262" d="M126.874,38.436H122.2a2.511,2.511,0,0,0-2.591-2.207c-1.5,0-2.816.96-2.816,4.159,0,3.167,1.312,4.7,2.688,4.7a2.439,2.439,0,0,0,2.687-2.239h4.67a7.008,7.008,0,0,1-7.325,6.11c-4.319,0-7.294-2.847-7.294-8.478s2.975-8.094,7.422-8.094C123.8,32.39,126.619,34.725,126.874,38.436Z" fill="#4949e9" style="opacity: 1;"></path>
							<path id="Path_261" data-name="Path 261" d="M137.94,42.5l.032-1.344a5.2,5.2,0,0,1-2.3.8c-2.207.48-2.847,1.088-2.847,2.207,0,.992.608,1.5,1.7,1.5A3.182,3.182,0,0,0,137.94,42.5Zm4.638,6.046h-4.063a4.142,4.142,0,0,1-.32-1.344c-.8,1.024-2.367,1.759-4.7,1.759-3.615,0-5.215-1.728-5.215-4.543,0-4.095,3.1-4.863,7.326-5.5,1.792-.256,2.3-.608,2.3-1.6,0-.9-1.024-1.376-2.336-1.376-1.759,0-2.431.8-2.591,1.983H128.79c.064-3.263,1.856-5.535,7.006-5.535,5.055,0,6.782,2.239,6.782,6.206Z" fill="#4949e9" style="opacity: 1;"></path>
							<path id="Path_260" data-name="Path 260" d="M148.3,48.544h-4.639v-21.5H148.3Z" fill="#4949e9" style="opacity: 1;"></path>
							<path id="Path_259" data-name="Path 259" d="M160.931,48.544h-4.639v-21.5h4.639Z" fill="#4949e9" style="opacity: 1;"></path>
							<path id="Path_362" data-name="Path 362" d="M7292.614-10566.512v-15.739h4.637v15.739Zm-.22-19.124a2.365,2.365,0,0,1,2.365-2.365,2.363,2.363,0,0,1,2.362,2.365,2.362,2.362,0,0,1-2.362,2.362A2.364,2.364,0,0,1,7292.394-10585.636Z" transform="translate(-7129.885 10615.057)" fill="#4949e9" style="opacity: 1;"></path>
							<path id="Path_257" data-name="Path 257" d="M175.4,48.544h-4.543V36.067h-3.72V32.8h3.72c0-3.839,2.207-5.758,6.75-5.758v3.743c-1.887,0-2.207.416-2.207,2.015h2.3v3.263h-2.3Z" fill="#4949e9" style="opacity: 1;"></path>
							<path id="Path_256" data-name="Path 256" d="M181.981,39.076h5.758c-.128-2.079-1.28-3.007-2.879-3.007S182.141,37.093,181.981,39.076Zm10.4,2.783H181.885c.128,1.983,1.343,3.423,3.1,3.423a2.4,2.4,0,0,0,2.431-1.376h4.767a6.874,6.874,0,0,1-6.974,5.055c-5.311,0-7.966-2.879-7.966-8.574,0-4.863,2.815-8,7.678-8,4.831,0,7.454,2.975,7.454,8.8Z" fill="#4949e9" style="opacity: 1;"></path>
						</g>
					</svg>
