<svg width="368" height="368" viewBox="0 0 368 368" fill="none" xmlns="http://www.w3.org/2000/svg">
<g clip-path="url(#clip0_301_160)">
<path d="M218.889 67.4411L223.452 54.3434L226.969 55.5688L229.132 68.9378L229.724 69.1441L229.252 69.342L233.285 57.7695L235.33 58.4822L230.766 71.5798L227.214 70.3419L225.051 56.973L224.459 56.7666L224.931 56.5687L220.898 68.1413L218.889 67.4411ZM239 75.9406C237.879 75.3775 237.008 74.6988 236.387 73.9045C235.782 73.1045 235.376 72.2483 235.168 71.3359C234.961 70.4234 234.911 69.534 235.021 68.6675C235.147 67.7954 235.381 67.0198 235.722 66.3407L235.91 65.9672C236.285 65.2203 236.791 64.5387 237.427 63.9225C238.074 63.3121 238.817 62.8349 239.656 62.4911C240.512 62.1416 241.436 61.9821 242.427 62.0124C243.429 62.0485 244.474 62.3395 245.56 62.8855C246.647 63.4315 247.498 64.0932 248.114 64.8705C248.73 65.6479 249.153 66.4843 249.383 67.3798C249.62 68.264 249.68 69.1449 249.565 70.0227C249.461 70.9062 249.222 71.7215 248.846 72.4684L248.659 72.8419C248.317 73.521 247.829 74.1686 247.193 74.7848C246.563 75.3896 245.82 75.8809 244.964 76.2587C244.119 76.6422 243.19 76.8272 242.176 76.8138C241.167 76.7891 240.109 76.498 239 75.9406ZM239.947 74.0562C240.626 74.3975 241.299 74.5801 241.968 74.6041C242.636 74.6282 243.271 74.5218 243.872 74.2851C244.473 74.0485 245.009 73.7012 245.48 73.2433C245.962 72.7911 246.36 72.2538 246.673 71.6313C247.003 70.9748 247.205 70.3182 247.28 69.6612C247.361 68.9929 247.314 68.3527 247.139 67.7406C246.982 67.1228 246.692 66.5586 246.268 66.0479C245.844 65.5372 245.292 65.1112 244.613 64.7699C243.934 64.4287 243.263 64.2404 242.601 64.205C241.938 64.1697 241.306 64.2704 240.705 64.507C240.11 64.7324 239.568 65.0769 239.08 65.5404C238.609 65.9982 238.209 66.5554 237.879 67.2118C237.566 67.8343 237.366 68.4712 237.28 69.1225C237.205 69.7794 237.252 70.4196 237.421 71.0431C237.589 71.6665 237.883 72.2393 238.301 72.7613C238.719 73.2833 239.267 73.7149 239.947 74.0562ZM249.113 81.0133L261.067 72.4606L264.16 74.6342L260.291 88.8667L258.363 87.5123L261.872 74.8839L262.382 75.7767L260.501 74.4551L261.561 74.6655L250.979 82.324L249.113 81.0133ZM253.944 79.6239L255.671 78.4221L260.428 81.7645L259.898 83.8073L253.944 79.6239ZM261.414 89.902L270.63 79.4096L272.343 80.9142L263.127 91.4066L261.414 89.902ZM267.81 95.5192L268.523 88.0279L270.464 89.7332L269.851 97.3123L267.81 95.5192ZM265.755 87.2917L267.022 85.8498L269.734 88.2322C270.143 88.5916 270.567 88.82 271.004 88.9174C271.449 89.0052 271.878 88.9685 272.289 88.8072C272.71 88.6543 273.092 88.3827 273.434 87.9925C273.769 87.6118 273.985 87.2029 274.082 86.7658C274.189 86.337 274.17 85.9074 274.026 85.477C273.881 85.0466 273.604 84.6516 273.195 84.2922L270.483 81.9099L271.787 80.4252L274.27 82.607C275.07 83.3091 275.656 84.043 276.029 84.8087C276.41 85.5649 276.549 86.3278 276.446 87.0974C276.343 87.8669 275.958 88.6324 275.289 89.3937L275.088 89.6221C274.42 90.3835 273.706 90.8606 272.946 91.0534C272.196 91.2545 271.422 91.2149 270.623 90.9346C269.833 90.6626 269.039 90.1755 268.239 89.4734L265.755 87.2917ZM272.481 100.192L281.38 91.7928L282.945 93.4509L274.046 101.85L272.481 100.192ZM278.286 89.0692L279.751 87.6868L286.963 95.3276L285.498 96.71L278.286 89.0692ZM277.867 106.085L288.574 97.267L290.023 99.027L279.317 107.845L277.867 106.085ZM281.138 110.236L292.365 102.091L293.704 103.936L282.477 112.081L281.138 110.236ZM287.098 108.259L288.698 107.099L292.078 111.758L290.479 112.919L287.098 108.259ZM291.881 104.789L293.48 103.629L297.029 108.519L295.429 109.679L291.881 104.789ZM286.86 118.319L298.562 110.873L299.786 112.797L288.084 120.243L286.86 118.319ZM292.112 128.451C291.523 127.33 291.211 126.27 291.174 125.274C291.155 124.283 291.33 123.376 291.699 122.553C292.085 121.735 292.581 121.017 293.187 120.399C293.809 119.786 294.463 119.3 295.147 118.941L295.517 118.747C296.269 118.353 297.077 118.079 297.94 117.927C298.804 117.774 299.666 117.78 300.524 117.944C301.389 118.12 302.209 118.498 302.986 119.078C303.768 119.669 304.438 120.497 304.997 121.562C305.58 122.673 305.887 123.735 305.918 124.748C305.949 125.762 305.735 126.69 305.275 127.532C304.833 128.379 304.158 129.097 303.252 129.687L302.184 127.651C302.765 127.232 303.175 126.745 303.413 126.191C303.669 125.642 303.768 125.054 303.71 124.426C303.659 123.809 303.465 123.182 303.13 122.542C302.782 121.88 302.356 121.353 301.849 120.961C301.349 120.58 300.803 120.33 300.212 120.211C299.62 120.092 298.997 120.09 298.342 120.205C297.704 120.325 297.054 120.559 296.392 120.906C295.764 121.235 295.214 121.631 294.741 122.094C294.286 122.562 293.936 123.081 293.692 123.653C293.448 124.224 293.344 124.829 293.379 125.469C293.42 126.12 293.62 126.787 293.979 127.471C294.497 128.458 295.174 129.162 296.009 129.582C296.856 129.996 297.772 130.038 298.757 129.707L299.833 131.76C298.911 132.1 297.967 132.224 297.002 132.129C296.048 132.029 295.143 131.681 294.288 131.086C293.443 130.485 292.718 129.607 292.112 128.451ZM296.12 135.684L308.88 130.248L309.774 132.345L297.013 137.781L296.12 135.684ZM297.602 139.249L312.299 139.43L313.506 143.013L301.963 152.195L301.211 149.962L311.513 141.86L311.396 142.882L310.662 140.703L311.392 141.5L298.329 141.41L297.602 139.249ZM302.318 140.988L304.421 141.042L306.277 146.551L304.641 147.884L302.318 140.988ZM302.279 153.688L315.785 150.533L316.304 152.753L302.797 155.908L302.279 153.688ZM302.711 155.538L304.691 155.076L306.095 161.089L304.115 161.551L302.711 155.538ZM305.134 172.677C305.004 171.417 305.107 170.318 305.444 169.379C305.794 168.452 306.293 167.675 306.941 167.047C307.604 166.432 308.331 165.949 309.122 165.6C309.928 165.262 310.715 165.054 311.484 164.975L311.9 164.932C312.744 164.845 313.595 164.891 314.454 165.07C315.313 165.248 316.111 165.574 316.847 166.045C317.584 166.53 318.206 167.185 318.711 168.012C319.218 168.851 319.533 169.869 319.656 171.066C319.785 172.313 319.676 173.413 319.328 174.366C318.981 175.318 318.437 176.1 317.698 176.711C316.973 177.334 316.08 177.75 315.019 177.962L314.783 175.675C315.479 175.501 316.04 175.201 316.467 174.775C316.908 174.361 317.219 173.851 317.398 173.247C317.579 172.655 317.633 172 317.559 171.282C317.482 170.539 317.281 169.891 316.957 169.338C316.634 168.799 316.22 168.364 315.715 168.034C315.21 167.704 314.632 167.471 313.981 167.334C313.344 167.209 312.654 167.184 311.91 167.261C311.205 167.334 310.547 167.497 309.936 167.751C309.34 168.016 308.822 168.369 308.384 168.809C307.945 169.249 307.623 169.772 307.419 170.379C307.215 170.999 307.153 171.693 307.232 172.461C307.346 173.57 307.713 174.474 308.333 175.175C308.965 175.873 309.8 176.252 310.838 176.311L311.076 178.616C310.092 178.59 309.17 178.354 308.309 177.908C307.461 177.461 306.75 176.802 306.176 175.932C305.615 175.06 305.268 173.975 305.134 172.677ZM305.625 187.2C305.65 185.946 305.886 184.868 306.335 183.964C306.795 183.074 307.393 182.338 308.126 181.757C308.86 181.176 309.641 180.748 310.47 180.472C311.311 180.21 312.111 180.086 312.871 180.101L313.289 180.109C314.125 180.126 314.958 180.288 315.788 180.595C316.618 180.916 317.369 181.38 318.041 181.989C318.726 182.61 319.269 183.375 319.669 184.282C320.069 185.202 320.257 186.27 320.233 187.485C320.21 188.701 319.98 189.755 319.545 190.646C319.109 191.537 318.537 192.279 317.829 192.874C317.133 193.468 316.364 193.903 315.523 194.178C314.681 194.465 313.842 194.601 313.006 194.585L312.588 194.576C311.829 194.562 311.034 194.4 310.203 194.093C309.386 193.785 308.622 193.327 307.912 192.718C307.201 192.121 306.633 191.363 306.208 190.442C305.795 189.522 305.601 188.441 305.625 187.2ZM307.734 187.241C307.719 188.001 307.845 188.688 308.112 189.301C308.378 189.914 308.748 190.441 309.221 190.881C309.694 191.321 310.238 191.655 310.855 191.882C311.471 192.122 312.127 192.249 312.824 192.263C313.558 192.277 314.238 192.176 314.863 191.96C315.501 191.745 316.058 191.426 316.535 191.005C317.024 190.596 317.408 190.091 317.686 189.488C317.964 188.885 318.11 188.204 318.125 187.444C318.14 186.684 318.02 185.998 317.766 185.385C317.512 184.772 317.148 184.245 316.676 183.805C316.215 183.366 315.671 183.025 315.042 182.785C314.426 182.558 313.75 182.437 313.016 182.423C312.319 182.409 311.659 182.504 311.034 182.707C310.409 182.923 309.852 183.241 309.362 183.662C308.872 184.084 308.482 184.595 308.192 185.198C307.901 185.8 307.749 186.481 307.734 187.241ZM305.592 196.494L319.357 198.202L319.076 200.465L305.312 198.757L305.592 196.494ZM305.358 198.38L307.376 198.63L306.615 204.758L304.598 204.508L305.358 198.38ZM302.48 211.938C302.762 210.716 303.215 209.709 303.84 208.917C304.473 208.14 305.209 207.543 306.046 207.125C306.884 206.707 307.736 206.449 308.604 206.35C309.481 206.266 310.29 206.309 311.031 206.48L311.438 206.574C312.253 206.761 313.034 207.091 313.784 207.563C314.53 208.047 315.17 208.656 315.702 209.389C316.245 210.138 316.619 210.998 316.824 211.968C317.027 212.951 316.991 214.034 316.718 215.219C316.445 216.404 316.004 217.388 315.395 218.17C314.785 218.953 314.073 219.562 313.258 219.998C312.455 220.437 311.613 220.705 310.733 220.801C309.85 220.909 309.001 220.87 308.187 220.682L307.779 220.588C307.039 220.417 306.294 220.096 305.545 219.625C304.808 219.156 304.154 218.55 303.584 217.808C303.012 217.078 302.612 216.219 302.385 215.231C302.17 214.245 302.202 213.148 302.48 211.938ZM304.536 212.412C304.365 213.152 304.347 213.85 304.482 214.505C304.617 215.16 304.871 215.752 305.243 216.28C305.615 216.807 306.08 217.246 306.636 217.595C307.19 217.957 307.806 218.216 308.485 218.372C309.201 218.537 309.887 218.578 310.543 218.495C311.211 218.415 311.822 218.218 312.376 217.904C312.938 217.604 313.418 217.188 313.813 216.656C314.209 216.123 314.492 215.486 314.663 214.746C314.834 214.005 314.858 213.309 314.735 212.657C314.612 212.004 314.365 211.414 313.993 210.887C313.633 210.362 313.17 209.917 312.604 209.553C312.047 209.203 311.411 208.946 310.695 208.781C310.016 208.625 309.35 208.582 308.697 208.652C308.041 208.735 307.43 208.932 306.864 209.244C306.299 209.555 305.812 209.976 305.404 210.506C304.996 211.036 304.706 211.671 304.536 212.412ZM300.517 221.019L313.669 225.714L312.903 227.861L299.75 223.166L300.517 221.019ZM297.655 229.036L304.881 226.935L304.013 229.368L296.742 231.594L297.655 229.036ZM304.545 224.091L306.352 224.736L305.138 228.136C304.955 228.649 304.899 229.126 304.97 229.569C305.053 230.015 305.245 230.4 305.546 230.723C305.844 231.057 306.237 231.312 306.726 231.487C307.203 231.657 307.663 231.707 308.105 231.636C308.543 231.577 308.936 231.401 309.282 231.108C309.629 230.815 309.894 230.412 310.077 229.899L311.291 226.499L313.152 227.163L312.04 230.277C311.683 231.279 311.217 232.094 310.642 232.723C310.08 233.356 309.423 233.767 308.669 233.956C307.916 234.144 307.062 234.068 306.108 233.727L305.822 233.625C304.867 233.284 304.16 232.797 303.701 232.162C303.238 231.539 302.989 230.805 302.954 229.959C302.916 229.125 303.075 228.207 303.433 227.204L304.545 224.091ZM293.795 236.817C294.31 235.744 294.921 234.913 295.625 234.324C296.336 233.752 297.087 233.417 297.878 233.32C298.681 233.228 299.471 233.369 300.248 233.742L299.276 235.762C298.922 235.592 298.528 235.522 298.092 235.551C297.656 235.581 297.22 235.758 296.783 236.082C296.357 236.411 295.966 236.947 295.61 237.689C295.286 238.363 295.117 238.963 295.103 239.49C295.083 240.029 295.183 240.478 295.404 240.837C295.619 241.207 295.921 241.486 296.309 241.672C296.789 241.903 297.276 241.884 297.77 241.616C298.276 241.353 298.761 240.827 299.224 240.038L299.945 238.845C300.59 237.736 301.386 236.987 302.332 236.598C303.289 236.215 304.275 236.268 305.292 236.756C306.068 237.129 306.654 237.636 307.049 238.275C307.439 238.926 307.631 239.666 307.627 240.493C307.635 241.325 307.424 242.187 306.996 243.078C306.558 243.991 306.011 244.705 305.356 245.219C304.712 245.739 304.006 246.039 303.237 246.119C302.474 246.216 301.687 246.07 300.876 245.68L301.847 243.659C302.213 243.835 302.599 243.908 303.006 243.879C303.42 243.867 303.817 243.728 304.198 243.461C304.579 243.195 304.907 242.776 305.181 242.205C305.445 241.657 305.567 241.154 305.549 240.695C305.525 240.248 305.402 239.859 305.182 239.528C304.961 239.197 304.674 238.947 304.32 238.777C303.898 238.574 303.444 238.553 302.96 238.713C302.486 238.879 302.062 239.28 301.687 239.914L300.991 241.098C300.5 241.944 299.947 242.613 299.332 243.104C298.722 243.612 298.081 243.922 297.409 244.035C296.731 244.159 296.038 244.05 295.33 243.71C294.554 243.337 293.97 242.797 293.58 242.089C293.183 241.393 293.001 240.588 293.032 239.676C293.057 238.774 293.312 237.821 293.795 236.817Z" fill="#4949E9"/>
<path d="M69.3684 224.831L56.0838 228.818L55.0134 225.251L64.5721 215.658L64.3919 215.057L64.8287 215.323L53.0909 218.846L52.4683 216.771L65.7529 212.784L66.8343 216.387L57.2755 225.981L57.4558 226.582L57.019 226.316L68.7567 222.793L69.3684 224.831ZM64.4345 203.56C64.6387 204.797 64.6027 205.901 64.3264 206.871C64.0355 207.83 63.5824 208.663 62.967 209.368C62.3516 210.073 61.6615 210.636 60.8966 211.057C60.1172 211.469 59.3526 211.736 58.6027 211.86L58.1903 211.928C57.3655 212.064 56.5169 212.057 55.6446 211.905C54.7703 211.742 53.9471 211.422 53.1753 210.946C52.3889 210.459 51.7162 209.807 51.1573 208.987C50.5963 208.156 50.2167 207.14 50.0186 205.94C49.8205 204.74 49.8544 203.663 50.1203 202.707C50.3863 201.752 50.8134 200.918 51.4017 200.204C51.9775 199.493 52.6541 198.926 53.4314 198.502C54.2067 198.066 55.0068 197.78 55.8316 197.643L56.2441 197.575C56.9939 197.451 57.805 197.465 58.6773 197.616C59.5371 197.77 60.3716 198.081 61.181 198.551C61.9883 199.008 62.6849 199.651 63.2709 200.478C63.8444 201.308 64.2322 202.335 64.4345 203.56ZM62.3536 203.904C62.2298 203.154 61.9809 202.502 61.6069 201.947C61.2329 201.393 60.7734 200.942 60.2283 200.596C59.6833 200.249 59.087 200.02 58.4395 199.909C57.79 199.785 57.1216 199.78 56.4342 199.893C55.7094 200.013 55.0593 200.236 54.4841 200.562C53.8964 200.89 53.4064 201.305 53.0141 201.806C52.6073 202.297 52.3222 202.864 52.1588 203.507C51.9954 204.15 51.9757 204.847 52.0995 205.597C52.2233 206.347 52.4659 207 52.8274 207.556C53.1889 208.113 53.6422 208.564 54.1873 208.911C54.7198 209.259 55.3171 209.495 55.9792 209.616C56.6266 209.728 57.3128 209.723 58.0376 209.604C58.725 209.49 59.3573 209.277 59.9346 208.963C60.5098 208.637 60.9998 208.222 61.4046 207.719C61.8093 207.216 62.0996 206.641 62.2755 205.996C62.4514 205.351 62.4774 204.653 62.3536 203.904ZM62.8793 184.642C62.8886 185.782 62.7132 186.797 62.3531 187.687C61.9803 188.576 61.4672 189.334 60.8136 189.96C60.16 190.586 59.3976 191.068 58.5263 191.404C57.6549 191.728 56.7316 191.894 55.7563 191.902L55.3383 191.905C54.4643 191.912 53.6081 191.767 52.7697 191.47C51.9312 191.173 51.1739 190.736 50.4979 190.159C49.8217 189.569 49.2838 188.851 48.8843 188.006C48.4846 187.148 48.2802 186.168 48.2712 185.066C48.2616 183.888 48.481 182.834 48.9295 181.906C49.3652 180.978 49.9798 180.232 50.7733 179.668C51.554 179.104 52.4634 178.774 53.5013 178.677L53.5202 180.995C52.8368 181.076 52.2624 181.315 51.797 181.712C51.3314 182.096 50.9807 182.58 50.7448 183.164C50.4961 183.736 50.3746 184.364 50.3802 185.048C50.3857 185.732 50.5175 186.358 50.7755 186.926C51.0207 187.482 51.373 187.96 51.8323 188.362C52.2789 188.763 52.8197 189.069 53.4548 189.279C54.0772 189.49 54.7747 189.592 55.5474 189.585C56.4087 189.578 57.1677 189.458 57.8245 189.225C58.4812 188.979 59.0358 188.639 59.4882 188.204C59.928 187.77 60.2658 187.254 60.5016 186.657C60.7247 186.047 60.8332 185.381 60.8273 184.659C60.8192 183.658 60.6094 182.786 60.198 182.042C59.7738 181.286 59.2308 180.72 58.569 180.345L60.7968 180.916L56.9399 180.948L56.9225 178.82L60.1144 178.794C60.9808 179.407 61.6587 180.213 62.1482 181.209C62.6249 182.193 62.8686 183.338 62.8793 184.642ZM57.4303 185.162L55.6444 185.176L55.5831 177.672L57.3691 177.657L57.4303 185.162ZM62.6628 175.943L48.8588 174.592L49.0792 172.341L62.8832 173.693L62.6628 175.943ZM62.8461 174.071L60.8795 173.879L61.5128 167.412L63.4794 167.604L62.8461 174.071ZM56.814 173.481L54.8474 173.288L55.4288 167.35L57.3954 167.543L56.814 173.481ZM51.0088 172.912L49.0422 172.72L49.6587 166.423L51.6253 166.615L51.0088 172.912ZM63.8496 165.424L50.2074 162.92L50.6189 160.678L64.2611 163.181L63.8496 165.424ZM64.1926 163.555L62.1929 163.188L63.3075 157.114L65.3071 157.481L64.1926 163.555ZM65.4091 157.146L53.3623 148.725L54.3809 145.084L69.0894 143.99L68.4547 146.259L55.3789 147.159L56.0505 146.38L55.4312 148.594L55.2765 147.525L66.0233 154.95L65.4091 157.146ZM62.4895 153.054L60.7811 151.827L62.3474 146.228L64.4499 146.046L62.4895 153.054ZM70.3481 141.114L58.9331 136.707L59.7543 134.58L71.1692 138.987L70.3481 141.114ZM57.8096 140.673L55.9308 139.947L59.7148 130.146L61.5936 130.871L57.8096 140.673ZM73.3352 133.71L60.7377 127.906L61.6918 125.836L74.2892 131.639L73.3352 133.71ZM75.6974 128.985L63.6771 122.065L65.5352 118.838L79.0731 119.2L79.3859 118.656L79.4927 119.156L68.872 113.042L69.9527 111.165L81.973 118.085L80.096 121.345L66.5581 120.983L66.2453 121.527L66.1385 121.027L76.7592 127.141L75.6974 128.985Z" fill="#4949E9"/>
</g>
<defs>
<clipPath id="clip0_301_160">
<rect width="368" height="368" fill="white"/>
</clipPath>
</defs>
</svg>
