<svg width="368" height="368" viewBox="0 0 368 368" fill="none" xmlns="http://www.w3.org/2000/svg">
<g clip-path="url(#clip0_301_130)">
<path d="M106.79 328.277L99.792 340.252L96.5767 338.373L97.0262 324.838L96.4849 324.522L96.9855 324.418L90.8024 334.999L88.9323 333.906L95.9302 321.931L99.1783 323.829L98.7288 337.364L99.2702 337.681L98.7695 337.784L104.953 327.203L106.79 328.277ZM88.511 316.278C89.5274 317.013 90.279 317.822 90.7658 318.705C91.235 319.591 91.4994 320.501 91.559 321.435C91.6185 322.369 91.5252 323.255 91.279 324.093C91.0152 324.934 90.6606 325.662 90.2155 326.278L89.9706 326.617C89.4809 327.294 88.8731 327.887 88.1473 328.393C87.4112 328.893 86.6015 329.246 85.7184 329.451C84.8175 329.66 83.8802 329.67 82.9065 329.482C81.9225 329.286 80.9377 328.832 79.9522 328.12C78.9666 327.408 78.2319 326.619 77.7478 325.753C77.2638 324.888 76.9795 323.994 76.8948 323.074C76.8027 322.163 76.8835 321.284 77.1371 320.436C77.3804 319.58 77.7469 318.813 78.2366 318.136L78.4815 317.797C78.9267 317.181 79.5122 316.62 80.238 316.113C80.9564 315.616 81.7684 315.25 82.6738 315.013C83.569 314.769 84.516 314.735 85.5148 314.91C86.5062 315.095 87.505 315.551 88.511 316.278ZM87.2756 317.988C86.6597 317.542 86.0237 317.255 85.3677 317.124C84.7117 316.994 84.0682 316.998 83.4372 317.136C82.8062 317.274 82.2216 317.531 81.6835 317.908C81.1352 318.277 80.657 318.744 80.2489 319.309C79.8185 319.904 79.5139 320.52 79.3351 321.157C79.1489 321.804 79.0931 322.443 79.1676 323.075C79.2244 323.71 79.4213 324.314 79.7582 324.885C80.0952 325.457 80.5716 325.966 81.1876 326.411C81.8035 326.856 82.4358 327.149 83.0844 327.289C83.733 327.43 84.3728 327.431 85.0038 327.294C85.6273 327.166 86.217 326.912 86.7728 326.533C87.3109 326.156 87.7951 325.67 88.2255 325.074C88.6336 324.51 88.9322 323.913 89.1212 323.283C89.3 322.647 89.3559 322.007 89.2888 321.365C89.2217 320.723 89.0234 320.11 88.6939 319.528C88.3643 318.946 87.8916 318.433 87.2756 317.988ZM80.8789 310.963L71.7082 321.368L68.9144 318.906L71.959 305.71L71.4886 305.295L71.9998 305.29L63.897 314.484L62.272 313.052L71.4427 302.646L74.265 305.134L71.2204 318.33L71.6908 318.744L71.1796 318.75L79.2825 309.556L80.8789 310.963ZM62.9159 293.194C63.68 294.04 64.223 294.915 64.5447 295.82C64.857 296.732 64.9768 297.64 64.9041 298.542C64.8313 299.444 64.581 300.31 64.1532 301.14C63.7169 301.961 63.1368 302.698 62.413 303.352L62.1028 303.632C61.4542 304.218 60.7179 304.678 59.8937 305.013C59.0695 305.348 58.2131 305.524 57.3243 305.542C56.4271 305.55 55.5483 305.371 54.6881 305.004C53.8193 304.628 53.0156 304.031 52.277 303.214C51.4873 302.339 50.9518 301.406 50.6704 300.415C50.3796 299.431 50.3435 298.465 50.5621 297.517C50.7713 296.577 51.2316 295.726 51.943 294.964L53.4967 296.684C53.0401 297.199 52.7695 297.759 52.6849 298.365C52.5918 298.961 52.6512 299.556 52.8632 300.149C53.0573 300.742 53.3835 301.292 53.842 301.8C54.3005 302.308 54.8148 302.688 55.3849 302.941C55.937 303.193 56.5182 303.317 57.1283 303.312C57.7289 303.316 58.3365 303.185 58.9508 302.921C59.5557 302.664 60.1449 302.277 60.7183 301.759C61.3574 301.182 61.845 300.588 62.181 299.977C62.5085 299.357 62.697 298.734 62.7468 298.109C62.7871 297.492 62.697 296.883 62.4766 296.279C62.2382 295.675 61.8771 295.105 61.3931 294.57C60.7224 293.827 59.9861 293.314 59.1844 293.031C58.3648 292.748 57.5832 292.686 56.8397 292.845L58.8842 291.792L56.0219 294.377L54.5955 292.798L56.9643 290.659C58.0195 290.542 59.0611 290.693 60.089 291.113C61.0991 291.532 62.0414 292.226 62.9159 293.194ZM59.1876 297.202L57.8623 298.399L52.8317 292.83L54.157 291.632L59.1876 297.202ZM56.961 286.84L45.8079 295.085L43.9781 292.61L48.7623 284.348L48.5703 284.088L39.2907 286.27L37.4383 283.764L48.5913 275.519L49.9355 277.337L40.4172 284.374L40.3122 284.168L49.7898 281.934L51.2807 283.951L46.3889 292.387L46.2002 292.196L55.7185 285.159L56.961 286.84ZM44.0393 267.399C44.6797 268.477 45.0477 269.518 45.1431 270.522C45.2212 271.522 45.1019 272.462 44.7852 273.342C44.4684 274.223 44.0305 274.999 43.4714 275.67C42.895 276.336 42.28 276.863 41.6266 277.252L41.2672 277.465C40.5484 277.892 39.7553 278.194 38.8877 278.37C38.0137 278.536 37.1307 278.537 36.2386 278.375C35.3291 278.208 34.465 277.844 33.6464 277.285C32.8213 276.714 32.0982 275.906 31.4772 274.86C30.8562 273.815 30.4958 272.799 30.3959 271.812C30.296 270.825 30.3903 269.893 30.6788 269.014C30.9564 268.142 31.3802 267.368 31.9502 266.69C32.5137 266.002 33.1548 265.444 33.8736 265.017L34.233 264.804C34.8864 264.416 35.6469 264.133 36.5144 263.957C37.3711 263.787 38.2618 263.774 39.1866 263.917C40.1049 264.049 40.9875 264.394 41.8344 264.952C42.6704 265.516 43.4054 266.332 44.0393 267.399ZM42.2261 268.476C41.838 267.822 41.3689 267.305 40.8188 266.925C40.2687 266.545 39.6768 266.292 39.043 266.168C38.4092 266.043 37.7705 266.047 37.1269 266.179C36.4769 266.3 35.8524 266.538 35.2534 266.894C34.6217 267.269 34.0973 267.713 33.6801 268.226C33.252 268.745 32.9465 269.31 32.7635 269.92C32.5631 270.525 32.5038 271.157 32.5856 271.815C32.6674 272.474 32.9024 273.13 33.2905 273.783C33.6786 274.437 34.1422 274.957 34.6814 275.344C35.2206 275.731 35.8071 275.986 36.4409 276.111C37.0638 276.242 37.7057 276.244 38.3666 276.116C39.0102 275.984 39.6478 275.731 40.2795 275.356C40.8785 275 41.3898 274.571 41.8134 274.069C42.2306 273.556 42.5362 272.991 42.7301 272.375C42.924 271.759 42.9855 271.119 42.9146 270.454C42.8437 269.788 42.6142 269.129 42.2261 268.476Z" fill="#4949E9"/>
<path d="M39.1763 109.189L37.3235 108.182L38.8394 105.394C39.2086 104.716 39.4327 104.052 39.5117 103.403C39.5797 102.747 39.5218 102.125 39.3381 101.535C39.1543 100.944 38.8524 100.413 38.4323 99.939C38.0071 99.4483 37.4885 99.0365 36.8765 98.7036C36.22 98.3466 35.5757 98.126 34.9438 98.0419C34.3179 97.9466 33.713 97.9853 33.1289 98.1579C32.5448 98.3304 32.0073 98.6293 31.5166 99.0545C31.0147 99.4737 30.5792 100.023 30.21 100.701L28.6941 103.489L26.8413 102.481L28.2665 99.8607C28.8656 98.7591 29.5529 97.8929 30.3285 97.2621C31.1102 96.6203 31.933 96.181 32.7971 95.9444C33.6611 95.7078 34.5218 95.6496 35.3792 95.7698C36.2366 95.89 37.0437 96.1559 37.8003 96.5674L38.1675 96.7671C38.8797 97.1544 39.5248 97.6783 40.1029 98.3387C40.6698 98.9931 41.0943 99.7502 41.3764 100.61C41.6474 101.464 41.737 102.4 41.6453 103.417C41.5485 104.417 41.2005 105.467 40.6014 106.569L39.1763 109.189ZM38.2685 110.859L25.9336 104.15L27.0229 102.147L39.3578 108.856L38.2685 110.859ZM45.1088 98.3643L33.3509 91.007L34.5603 89.0742L46.3182 96.4315L45.1088 98.3643ZM47.9871 93.9301L36.5899 86.0256L37.8785 84.1677L49.2757 92.0722L47.9871 93.9301ZM49.0591 92.3844L47.4354 91.2583L51.1386 85.9188L52.7623 87.0449L49.0591 92.3844ZM44.0787 88.9303L42.455 87.8042L45.855 82.9018L47.4787 84.0279L44.0787 88.9303ZM39.2856 85.6061L37.6619 84.48L41.2676 79.281L42.8913 80.4071L39.2856 85.6061ZM55.7915 83.1549L46.1694 75.5961L47.5779 73.8032L57.2 81.362L55.7915 83.1549ZM43.933 79.0582L42.3493 77.814L48.84 69.5516L50.4237 70.7957L43.933 79.0582ZM59.1592 78.9197L52.1848 65.9816L54.7318 63.1872L68.3617 68.8232L66.7746 70.5645L54.6905 65.489L55.6406 65.0953L54.092 66.7944L54.4345 65.7698L60.6951 77.2346L59.1592 78.9197ZM58.3911 73.9521L57.4171 72.0874L61.3336 67.7904L63.2931 68.5738L58.3911 73.9521ZM69.4954 67.7981L59.9511 57.6036L61.6155 56.0454L71.1598 66.2398L69.4954 67.7981ZM75.7092 61.9806L68.323 60.5409L70.2093 58.7749L77.6926 60.1236L75.7092 61.9806ZM67.3206 63.2233L66.009 61.8224L68.6443 59.3551C69.0419 58.9829 69.3105 58.584 69.4499 58.1584C69.5808 57.7236 69.586 57.2936 69.4655 56.8685C69.3544 56.4347 69.1213 56.0282 68.7664 55.6491C68.4201 55.2792 68.0342 55.0245 67.6086 54.8851C67.1923 54.7369 66.7629 54.7138 66.3204 54.8158C65.878 54.9177 65.4579 55.1548 65.0603 55.527L62.425 57.9943L61.0745 56.5518L63.4879 54.2923C64.2646 53.5651 65.0522 53.0534 65.8505 52.757C66.6403 52.4515 67.4131 52.3873 68.169 52.5646C68.9249 52.7418 69.6491 53.2003 70.3416 53.94L70.5494 54.1619C71.242 54.9017 71.6472 55.6588 71.7651 56.4334C71.8922 57.1993 71.7773 57.9662 71.4204 58.7341C71.0728 59.4934 70.5107 60.2366 69.7339 60.9638L67.3206 63.2233ZM77.2163 53.7073L68.5296 49.7786L70.3633 48.2993L77.4449 51.5699L76.7961 51.8248L78.3636 50.5602L77.9477 51.1643L76.0566 43.7063L77.7867 42.3105L80.0111 51.4526L77.2163 53.7073ZM81.1129 57.448L77.4981 52.9673L79.2282 51.5715L82.843 56.0522L81.1129 57.448ZM94.5017 48.071C93.5083 48.7274 92.5581 49.1275 91.6512 49.2713C90.7478 49.3976 89.9314 49.2994 89.202 48.9767C88.4656 48.6434 87.86 48.1175 87.3851 47.3989L89.2557 46.1629C89.4722 46.4905 89.775 46.7535 90.1641 46.9518C90.5532 47.1501 91.0184 47.2223 91.5597 47.1683C92.0939 47.1038 92.7045 46.8446 93.3915 46.3907C94.015 45.9787 94.4682 45.5502 94.7511 45.1052C95.0445 44.6532 95.1886 44.2164 95.1833 43.7948C95.1886 43.3662 95.0725 42.9723 94.8351 42.613C94.5418 42.1691 94.1141 41.9355 93.5521 41.9121C92.9832 41.8781 92.2973 42.0808 91.4945 42.5202L90.2639 43.1738C89.1407 43.7946 88.0735 44.0291 87.0623 43.8774C86.0442 43.7151 85.2244 43.1637 84.6029 42.2231C84.1281 41.5045 83.8852 40.7692 83.8742 40.0174C83.8738 39.2586 84.0876 38.5252 84.5156 37.8173C84.9366 37.0988 85.5593 36.4673 86.3836 35.9226C87.2291 35.364 88.0648 35.0319 88.8908 34.9264C89.7099 34.8103 90.47 34.9153 91.1713 35.2414C91.8762 35.55 92.4765 36.0794 92.9723 36.8297L91.1017 38.0657C90.8783 37.7275 90.5843 37.4663 90.2196 37.2821C89.8586 37.0804 89.4462 36.9962 88.9823 37.0294C88.5184 37.0626 88.0223 37.2538 87.4939 37.6029C86.9866 37.9381 86.6233 38.3073 86.4038 38.7104C86.1949 39.1065 86.1002 39.5031 86.1196 39.9001C86.139 40.2972 86.257 40.6595 86.4735 40.9872C86.7318 41.3782 87.1102 41.6292 87.6086 41.7401C88.1001 41.8405 88.6697 41.7146 89.3176 41.3625L90.5218 40.7034C91.3774 40.2291 92.1954 39.9392 92.9758 39.8335C93.7597 39.7102 94.4691 39.7728 95.1039 40.0214C95.7494 40.2629 96.2885 40.7113 96.7215 41.3665C97.1963 42.0852 97.4198 42.8484 97.3919 43.6563C97.3745 44.4573 97.1183 45.2414 96.6234 46.0087C96.1389 46.7691 95.4317 47.4565 94.5017 48.071ZM105.777 41.3267C104.657 41.9455 103.598 42.2555 102.601 42.2569C101.608 42.2411 100.697 41.9554 99.8695 41.3999C99.0526 40.8383 98.3593 40.0419 97.7896 39.0108L93.7648 31.7268L95.7604 30.6242L99.8771 38.0744C100.22 38.6953 100.645 39.1767 101.153 39.5187C101.66 39.8606 102.22 40.036 102.833 40.0448C103.439 40.0425 104.081 39.8545 104.757 39.4808C105.433 39.1071 105.928 38.6672 106.242 38.161C106.567 37.6487 106.719 37.0868 106.7 36.4753C106.68 35.8638 106.496 35.2421 106.147 34.6101L102.03 27.1599L104.026 26.0572L108.05 33.3411C108.62 34.3722 108.925 35.383 108.966 36.3735C109.007 37.3639 108.764 38.2867 108.238 39.1418C107.717 39.9797 106.897 40.708 105.777 41.3267ZM113.021 32.1062L112.199 30.2883L114.831 29.0987C115.385 28.8483 115.794 28.5383 116.058 28.1688C116.328 27.7825 116.478 27.3604 116.507 26.9023C116.531 26.4327 116.436 25.9613 116.222 25.4881C116.003 25.0033 115.712 24.6206 115.349 24.34C114.98 24.0478 114.565 23.8813 114.101 23.8405C113.65 23.7945 113.147 23.8967 112.593 24.1472L109.961 25.3368L109.139 23.5189L111.529 22.4388C112.579 21.964 113.54 21.738 114.412 21.7608C115.291 21.7668 116.055 21.998 116.707 22.4543C117.364 22.8938 117.886 23.5407 118.272 24.3948L118.397 24.6718C118.778 25.5144 118.919 26.3334 118.82 27.1288C118.732 27.9191 118.403 28.6517 117.832 29.3267C117.268 29.9849 116.461 30.5514 115.41 31.0262L113.021 32.1062ZM113.16 37.0267L107.408 24.3015L109.486 23.3623L115.238 36.0876L113.16 37.0267ZM123.965 27.4613L123.273 25.5902L125.982 24.5884C126.552 24.3775 126.982 24.097 127.271 23.747C127.568 23.3807 127.747 22.9701 127.808 22.5152C127.865 22.0485 127.804 21.5716 127.624 21.0845C127.439 20.5855 127.176 20.1833 126.833 19.8778C126.486 19.5605 126.083 19.3652 125.624 19.2919C125.176 19.2143 124.667 19.2809 124.097 19.4918L121.388 20.4936L120.696 18.6224L123.156 17.7129C124.237 17.3131 125.212 17.1552 126.08 17.2392C126.956 17.3069 127.702 17.5912 128.32 18.0922C128.945 18.5768 129.42 19.2587 129.745 20.1379L129.85 20.423C130.171 21.2902 130.254 22.1171 130.099 22.9037C129.956 23.6858 129.577 24.3935 128.96 25.0267C128.351 25.6436 127.506 26.152 126.425 26.5518L123.965 27.4613ZM123.759 32.3794L118.914 19.2815L121.053 18.4906L125.897 31.5886L123.759 32.3794ZM134.653 28.4773L130.685 15.187L132.87 14.5347L136.838 27.825L134.653 28.4773ZM136.474 27.9337L135.892 25.9857L141.809 24.2192L142.391 26.1672L136.474 27.9337ZM143.944 25.8228L140.8 12.3138L143.002 11.8013L146.146 25.3103L143.944 25.8228ZM145.776 25.3964L145.328 23.4719L151.657 21.9989L152.105 23.9235L145.776 25.3964ZM144.402 19.4932L143.955 17.5686L149.765 16.2163L150.213 18.1408L144.402 19.4932ZM143.08 13.812L142.632 11.8875L148.795 10.4533L149.243 12.3778L143.08 13.812ZM154.29 23.5737L152.279 9.8503L155.324 9.40391L160.354 17.5192L160.674 17.4724L163.126 8.26036L166.209 7.80845L168.22 21.5318L165.983 21.8597L164.267 10.1479L164.498 10.1524L161.998 19.5634L159.517 19.9271L154.384 11.6349L154.641 11.5587L156.358 23.2706L154.29 23.5737ZM171.153 21.2635L170.326 7.41817L172.583 7.2835L173.41 21.1289L171.153 21.2635ZM173.03 21.1515L172.913 19.179L179.399 18.792L179.517 20.7645L173.03 21.1515ZM172.669 15.1013L172.552 13.1288L178.507 12.7734L178.625 14.7459L172.669 15.1013ZM172.322 9.27862L172.204 7.30613L178.52 6.92927L178.638 8.90176L172.322 9.27862ZM181.73 20.7807L182.008 6.91347L185.731 6.98795L191.933 19.0274L192.559 19.0399L192.173 19.3743L192.418 7.12172L194.583 7.16504L194.306 21.0323L190.545 20.957L184.343 8.91758L183.716 8.90504L184.103 8.57071L183.858 20.8233L181.73 20.7807ZM199.964 21.5256L201.223 9.35454L203.491 9.58918L202.231 21.7602L199.964 21.5256ZM197.101 9.31017L197.309 7.30686L207.76 8.38816L207.553 10.3915L197.101 9.31017Z" fill="#4949E9"/>
<path d="M335.2 119.026L348.114 113.965L349.473 117.433L340.731 127.776L340.96 128.36L340.503 128.131L351.913 123.659L352.703 125.676L339.789 130.737L338.417 127.234L347.158 116.891L346.93 116.307L347.387 116.536L335.976 121.007L335.2 119.026ZM342.132 139.766C341.787 138.561 341.695 137.46 341.857 136.465C342.035 135.478 342.389 134.599 342.919 133.828C343.449 133.056 344.069 132.417 344.78 131.91C345.507 131.411 346.235 131.057 346.966 130.848L347.368 130.732C348.171 130.502 349.015 130.411 349.899 130.461C350.786 130.522 351.641 130.745 352.463 131.128C353.3 131.52 354.044 132.091 354.693 132.84C355.347 133.602 355.841 134.567 356.177 135.735C356.512 136.904 356.603 137.979 356.449 138.958C356.295 139.938 355.968 140.816 355.466 141.593C354.976 142.366 354.37 143.008 353.646 143.518C352.927 144.041 352.165 144.418 351.361 144.649L350.96 144.764C350.229 144.974 349.422 145.054 348.538 145.004C347.666 144.951 346.801 144.738 345.943 144.365C345.088 144.004 344.322 143.447 343.644 142.692C342.979 141.935 342.475 140.959 342.132 139.766ZM344.16 139.184C344.369 139.915 344.692 140.534 345.127 141.041C345.563 141.549 346.072 141.943 346.653 142.224C347.235 142.506 347.853 142.664 348.509 142.7C349.169 142.748 349.833 142.676 350.503 142.483C351.209 142.281 351.829 141.984 352.363 141.594C352.909 141.2 353.347 140.731 353.679 140.188C354.026 139.654 354.244 139.057 354.332 138.4C354.42 137.742 354.359 137.048 354.149 136.317C353.94 135.587 353.623 134.966 353.2 134.455C352.776 133.944 352.274 133.548 351.693 133.267C351.123 132.982 350.503 132.817 349.831 132.773C349.175 132.737 348.494 132.821 347.788 133.023C347.118 133.215 346.515 133.501 345.978 133.879C345.444 134.269 345.005 134.738 344.661 135.284C344.318 135.831 344.096 136.435 343.995 137.097C343.895 137.758 343.95 138.454 344.16 139.184ZM345.337 150.63L359.831 153.067L360.474 156.793L347.657 164.092L347.257 161.77L358.682 155.347L358.41 156.339L358.019 154.074L358.618 154.973L345.724 152.877L345.337 150.63ZM349.73 153.073L351.8 153.449L352.787 159.178L350.966 160.244L349.73 153.073ZM347.764 165.618L361.675 164.387L361.876 166.659L347.965 167.889L347.764 165.618ZM348.514 174.097L354.201 169.168L354.429 171.742L348.754 176.803L348.514 174.097ZM352.707 166.726L354.619 166.556L354.937 170.152C354.985 170.695 355.133 171.152 355.382 171.525C355.644 171.896 355.979 172.165 356.388 172.332C356.799 172.512 357.262 172.579 357.78 172.533C358.284 172.489 358.723 172.342 359.095 172.093C359.468 171.856 359.751 171.532 359.944 171.121C360.136 170.71 360.208 170.233 360.16 169.691L359.842 166.095L361.811 165.921L362.102 169.214C362.196 170.274 362.113 171.209 361.854 172.02C361.608 172.831 361.182 173.479 360.577 173.964C359.971 174.45 359.164 174.738 358.154 174.827L357.851 174.854C356.842 174.943 355.996 174.796 355.313 174.411C354.632 174.039 354.099 173.476 353.714 172.721C353.331 171.979 353.092 171.079 352.999 170.019L352.707 166.726ZM348.774 180.704L361.008 180.49L361.048 182.769L348.814 182.984L348.774 180.704ZM360.556 176.393L362.57 176.358L362.754 186.863L360.74 186.898L360.556 176.393ZM348.818 188.691L362.681 189.146L362.606 191.425L348.743 190.97L348.818 188.691ZM348.558 193.971L362.384 195.071L362.203 197.344L348.377 196.244L348.558 193.971ZM354.373 196.34L356.343 196.496L355.887 202.235L353.917 202.078L354.373 196.34ZM360.264 196.808L362.234 196.965L361.754 202.988L359.785 202.831L360.264 196.808ZM347.686 203.838L361.448 205.568L361.163 207.83L347.402 206.1L347.686 203.838ZM345.457 215.037C345.689 213.792 346.099 212.767 346.687 211.962C347.285 211.171 347.984 210.567 348.784 210.149C349.593 209.746 350.427 209.489 351.285 209.379C352.154 209.283 352.968 209.306 353.727 209.448L354.138 209.524C354.972 209.68 355.776 209.965 356.549 210.38C357.322 210.794 357.995 211.332 358.568 211.993C359.138 212.666 359.548 213.471 359.799 214.407C360.048 215.355 360.061 216.42 359.841 217.603C359.611 218.836 359.195 219.86 358.592 220.675C357.989 221.491 357.246 222.087 356.364 222.463C355.492 222.855 354.518 223.002 353.441 222.904L353.862 220.644C354.578 220.674 355.201 220.546 355.732 220.258C356.272 219.985 356.714 219.584 357.058 219.056C357.399 218.54 357.635 217.927 357.768 217.217C357.905 216.482 357.896 215.804 357.741 215.182C357.584 214.573 357.31 214.039 356.919 213.58C356.528 213.12 356.04 212.733 355.454 212.417C354.879 212.117 354.224 211.898 353.489 211.761C352.792 211.631 352.114 211.601 351.457 211.672C350.81 211.758 350.214 211.949 349.668 212.247C349.123 212.545 348.666 212.956 348.298 213.48C347.928 214.016 347.671 214.664 347.53 215.424C347.326 216.52 347.421 217.491 347.818 218.338C348.226 219.187 348.92 219.787 349.898 220.137L349.473 222.416C348.538 222.112 347.72 221.625 347.021 220.953C346.334 220.284 345.838 219.451 345.535 218.454C345.243 217.459 345.217 216.32 345.457 215.037ZM344.16 223.211L357.609 226.601L357.051 228.812L343.602 225.422L344.16 223.211ZM343.191 226.949L354.964 235.749L353.83 239.356L339.095 239.982L339.801 237.734L352.899 237.25L352.203 238.008L352.892 235.814L353.013 236.888L342.507 229.124L343.191 226.949ZM345.979 231.132L347.648 232.413L345.904 237.96L343.797 238.074L345.979 231.132ZM338.512 241.395L351.415 246.482L350.579 248.603L337.676 243.516L338.512 241.395ZM337.815 243.162L339.706 243.908L337.441 249.653L335.55 248.907L337.815 243.162ZM333.443 253.487L345.897 259.592L344.894 261.639L332.44 255.534L333.443 253.487ZM337.981 257.827L339.755 258.697L337.221 263.867L335.447 262.997L337.981 257.827ZM343.287 260.428L345.061 261.298L342.402 266.723L340.627 265.854L343.287 260.428ZM329 262.297L341.067 269.137L339.942 271.12L327.876 264.281L329 262.297ZM328.063 263.95L329.832 264.953L326.787 270.325L325.018 269.322L328.063 263.95ZM324.819 269.612L333.692 281.33L331.603 284.481L317.271 280.999L318.573 279.035L331.291 282.2L330.413 282.735L331.683 280.819L331.501 281.884L323.559 271.513L324.819 269.612ZM326.339 274.404L327.587 276.097L324.374 280.943L322.318 280.469L326.339 274.404ZM314.828 283.977L328.587 288.895L327.148 290.736L314.975 286.287L315.82 285.886L314.486 287.592L314.718 286.616L322.164 297.114L320.76 298.91L312.476 286.986L314.828 283.977ZM304.221 295.836C305.076 294.919 305.972 294.274 306.909 293.9C307.846 293.544 308.782 293.395 309.716 293.452C310.65 293.509 311.518 293.711 312.319 294.059C313.12 294.426 313.799 294.868 314.355 295.386L314.661 295.671C315.272 296.241 315.784 296.918 316.197 297.701C316.601 298.493 316.851 299.34 316.945 300.242C317.04 301.162 316.934 302.093 316.627 303.036C316.311 303.988 315.738 304.909 314.909 305.798C314.08 306.688 313.206 307.319 312.287 307.692C311.368 308.065 310.446 308.236 309.522 308.206C308.607 308.184 307.745 307.995 306.935 307.638C306.116 307.291 305.401 306.832 304.789 306.262L304.483 305.977C303.927 305.459 303.443 304.808 303.03 304.025C302.626 303.25 302.363 302.399 302.241 301.471C302.11 300.553 302.194 299.609 302.491 298.64C302.798 297.679 303.375 296.744 304.221 295.836ZM305.764 297.274C305.245 297.83 304.881 298.426 304.67 299.06C304.46 299.695 304.383 300.334 304.442 300.977C304.5 301.621 304.683 302.232 304.99 302.813C305.289 303.403 305.693 303.936 306.203 304.411C306.74 304.912 307.314 305.29 307.923 305.547C308.542 305.812 309.169 305.946 309.806 305.951C310.443 305.973 311.066 305.853 311.675 305.59C312.284 305.326 312.848 304.916 313.366 304.36C313.884 303.805 314.254 303.214 314.473 302.587C314.693 301.961 314.774 301.327 314.716 300.683C314.667 300.049 314.488 299.432 314.18 298.834C313.873 298.253 313.451 297.712 312.913 297.211C312.404 296.736 311.848 296.366 311.248 296.1C310.638 295.844 310.01 295.709 309.365 295.696C308.719 295.683 308.087 295.803 307.469 296.058C306.85 296.313 306.282 296.718 305.764 297.274ZM298.013 302.764L307.377 313.125L305.686 314.654L296.322 304.293L298.013 302.764ZM291.698 308.472L299.058 310.041L297.141 311.774L289.683 310.294L291.698 308.472ZM300.107 307.377L301.394 308.8L298.716 311.221C298.312 311.586 298.036 311.98 297.89 312.403C297.751 312.836 297.738 313.266 297.851 313.693C297.955 314.129 298.181 314.539 298.529 314.924C298.869 315.3 299.25 315.562 299.673 315.709C300.087 315.864 300.516 315.895 300.96 315.8C301.404 315.706 301.828 315.477 302.232 315.111L304.911 312.691L306.236 314.157L303.783 316.373C302.994 317.087 302.197 317.585 301.394 317.867C300.599 318.159 299.825 318.209 299.072 318.019C298.32 317.828 297.603 317.357 296.924 316.605L296.72 316.38C296.041 315.628 295.649 314.864 295.545 314.088C295.431 313.32 295.559 312.555 295.929 311.793C296.29 311.04 296.865 310.307 297.655 309.593L300.107 307.377ZM284.701 313.634C285.646 312.909 286.566 312.443 287.46 312.236C288.352 312.046 289.174 312.087 289.924 312.357C290.682 312.638 291.323 313.12 291.847 313.803L290.069 315.168C289.83 314.856 289.509 314.615 289.107 314.445C288.705 314.275 288.236 314.235 287.7 314.327C287.171 314.429 286.58 314.731 285.927 315.232C285.334 315.687 284.912 316.146 284.661 316.61C284.4 317.082 284.287 317.527 284.322 317.948C284.347 318.375 284.491 318.76 284.753 319.102C285.077 319.524 285.52 319.727 286.082 319.711C286.652 319.705 287.322 319.454 288.092 318.959L289.273 318.221C290.35 317.522 291.398 317.213 292.417 317.293C293.444 317.384 294.301 317.876 294.987 318.77C295.511 319.454 295.806 320.17 295.869 320.919C295.923 321.676 295.762 322.423 295.384 323.159C295.015 323.905 294.438 324.579 293.655 325.181C292.851 325.797 292.04 326.187 291.224 326.351C290.415 326.524 289.649 326.473 288.927 326.197C288.202 325.939 287.566 325.453 287.018 324.74L288.797 323.375C289.044 323.697 289.356 323.937 289.732 324.095C290.107 324.27 290.524 324.325 290.984 324.26C291.445 324.194 291.926 323.968 292.429 323.583C292.911 323.213 293.248 322.819 293.438 322.401C293.619 321.991 293.685 321.589 293.638 321.194C293.59 320.8 293.447 320.447 293.208 320.135C292.923 319.763 292.528 319.539 292.023 319.464C291.526 319.398 290.966 319.564 290.345 319.961L289.19 320.703C288.37 321.236 287.574 321.583 286.803 321.744C286.03 321.922 285.318 321.909 284.667 321.706C284.006 321.511 283.437 321.101 282.959 320.478C282.435 319.795 282.158 319.049 282.129 318.241C282.09 317.441 282.29 316.641 282.73 315.841C283.16 315.048 283.817 314.312 284.701 313.634Z" fill="#4949E9"/>
</g>
<defs>
<clipPath id="clip0_301_130">
<rect width="368" height="368" fill="white"/>
</clipPath>
</defs>
</svg>
