<svg width="368" height="368" viewBox="0 0 368 368" fill="none" xmlns="http://www.w3.org/2000/svg">
<path d="M230.078 108.945L233.577 94.7577L235.554 96.0027L232.361 108.564L231.876 107.765L233.709 108.919L232.715 108.786L242.404 100.315L244.333 101.53L233.31 110.98L230.078 108.945ZM238.166 114.33L247.053 103.681L248.789 105.13L239.902 115.779L238.166 114.33ZM239.61 115.535L240.876 114.018L245.865 118.182L244.599 119.699L239.61 115.535ZM243.494 110.882L244.76 109.365L249.34 113.187L248.074 114.704L243.494 110.882ZM247.231 106.403L248.497 104.886L253.355 108.94L252.089 110.457L247.231 106.403ZM250 126.17C249.238 125.322 248.697 124.445 248.377 123.54C248.067 122.627 247.95 121.719 248.025 120.817C248.1 119.915 248.353 119.05 248.783 118.221C249.221 117.401 249.803 116.665 250.528 116.013L250.839 115.734C251.489 115.149 252.227 114.691 253.052 114.358C253.877 114.026 254.734 113.852 255.623 113.836C256.52 113.831 257.398 114.012 258.258 114.381C259.125 114.759 259.928 115.358 260.664 116.178C261.451 117.054 261.985 117.988 262.263 118.981C262.552 119.965 262.585 120.931 262.364 121.879C262.153 122.818 261.69 123.668 260.977 124.428L259.428 122.704C259.886 122.19 260.158 121.631 260.244 121.026C260.338 120.43 260.28 119.835 260.07 119.24C259.877 118.647 259.553 118.096 259.095 117.587C258.638 117.078 258.125 116.697 257.556 116.442C257.004 116.188 256.423 116.063 255.813 116.067C255.212 116.061 254.605 116.19 253.99 116.454C253.384 116.708 252.794 117.094 252.219 117.61C251.578 118.186 251.089 118.779 250.752 119.389C250.423 120.008 250.233 120.63 250.181 121.255C250.139 121.872 250.228 122.482 250.447 123.086C250.684 123.69 251.043 124.261 251.526 124.798C252.195 125.542 252.93 126.057 253.731 126.342C254.55 126.628 255.331 126.692 256.075 126.534L254.028 127.582L256.897 125.004L258.319 126.587L255.945 128.72C254.889 128.835 253.848 128.68 252.821 128.258C251.812 127.836 250.872 127.14 250 126.17ZM253.738 122.172L255.066 120.978L260.083 126.56L258.754 127.754L253.738 122.172ZM254.951 131.273L269.252 127.88L271.293 131.063L262.325 142.773L261.053 140.789L269.08 130.428L269.215 131.448L267.974 129.513L268.875 130.108L256.181 133.192L254.951 131.273ZM259.948 131.815L262.001 131.356L265.139 136.25L263.876 137.941L259.948 131.815ZM262.866 144.197L275.635 138.783L277.089 142.212L268.635 152.792L268.88 153.369L268.416 153.153L279.699 148.37L280.545 150.364L267.775 155.777L266.306 152.314L274.761 141.734L274.516 141.157L274.979 141.373L263.696 146.156L262.866 144.197Z" fill="#4949E9"/>
<path d="M248.527 251.169L249.877 252.638L247.751 254.592C247.303 255.003 247.012 255.426 246.877 255.859C246.741 256.311 246.731 256.759 246.847 257.203C246.971 257.656 247.209 258.074 247.561 258.456C247.921 258.848 248.317 259.12 248.75 259.273C249.191 259.435 249.638 259.463 250.091 259.357C250.534 259.259 250.98 259.004 251.428 258.593L253.554 256.639L254.904 258.108L252.973 259.882C252.125 260.662 251.283 261.178 250.447 261.429C249.611 261.699 248.812 261.719 248.051 261.489C247.289 261.278 246.591 260.827 245.957 260.137L245.751 259.913C245.125 259.232 244.735 258.499 244.58 257.712C244.416 256.934 244.499 256.135 244.829 255.316C245.159 254.514 245.748 253.723 246.597 252.943L248.527 251.169ZM246.854 246.539L256.303 256.822L254.624 258.365L245.175 248.082L246.854 246.539ZM230.507 259.349L238.294 270.827L236.407 272.107L228.62 260.629L230.507 259.349ZM238.164 254.154L245.951 265.632L244.064 266.912L236.278 255.434L238.164 254.154ZM239.957 260.079L241.098 261.761L234.604 266.166L233.463 264.484L239.957 260.079ZM227.331 261.419L228.786 276.045L225.36 277.643L214.951 267.194L217.086 266.198L226.284 275.535L225.256 275.533L227.339 274.561L226.629 275.374L225.265 262.383L227.331 261.419ZM226.127 266.3L226.308 268.396L221.039 270.853L219.533 269.376L226.127 266.3ZM213.478 267.574L217.421 280.971L215.233 281.614L211.291 268.217L213.478 267.574ZM205.312 269.977L211.263 274.583L208.784 275.313L202.706 270.744L205.312 269.977ZM213.364 272.638L213.906 274.479L210.443 275.498C209.92 275.652 209.501 275.887 209.185 276.205C208.873 276.534 208.675 276.916 208.591 277.35C208.496 277.788 208.521 278.255 208.668 278.754C208.811 279.24 209.041 279.641 209.358 279.957C209.664 280.276 210.037 280.49 210.478 280.598C210.919 280.705 211.401 280.682 211.923 280.529L215.386 279.509L215.944 281.405L212.773 282.338C211.752 282.639 210.819 282.742 209.972 282.648C209.129 282.566 208.41 282.276 207.815 281.778C207.219 281.279 206.778 280.544 206.492 279.572L206.406 279.281C206.12 278.308 206.099 277.45 206.342 276.705C206.572 275.964 207.02 275.33 207.684 274.805C208.336 274.283 209.172 273.872 210.193 273.571L213.364 272.638ZM201.217 270.855L202.835 284.631L199.778 284.99L194.982 276.734L194.661 276.772L191.947 285.91L188.853 286.274L187.234 272.498L189.479 272.235L190.861 283.991L190.63 283.98L193.397 274.644L195.888 274.351L200.782 282.787L200.522 282.855L199.141 271.099L201.217 270.855ZM185.742 272.599L180.147 286.191L176.372 285.99L172.1 271.873L174.453 271.998L178.179 284.564L177.272 284.078L179.568 284.201L178.558 284.584L183.465 272.478L185.742 272.599ZM182.384 276.34L181.558 278.275L175.752 277.966L175.117 275.953L182.384 276.34ZM165.169 269.926C166.409 270.188 167.424 270.623 168.214 271.231C168.99 271.848 169.577 272.562 169.975 273.371C170.359 274.19 170.595 275.03 170.685 275.89C170.76 276.761 170.717 277.574 170.557 278.33L170.471 278.739C170.295 279.569 169.99 280.366 169.557 281.128C169.124 281.891 168.57 282.551 167.895 283.107C167.208 283.661 166.394 284.052 165.453 284.28C164.499 284.505 163.433 284.493 162.256 284.244C161.029 283.985 160.015 283.543 159.215 282.921C158.414 282.298 157.836 281.542 157.481 280.651C157.111 279.77 156.988 278.792 157.112 277.718L159.361 278.194C159.313 278.909 159.426 279.535 159.701 280.072C159.961 280.619 160.351 281.07 160.871 281.426C161.379 281.78 161.986 282.031 162.692 282.181C163.423 282.336 164.102 282.343 164.727 282.204C165.339 282.061 165.88 281.8 166.349 281.421C166.818 281.041 167.217 280.562 167.546 279.984C167.861 279.416 168.095 278.767 168.25 278.036C168.397 277.342 168.443 276.665 168.388 276.006C168.318 275.357 168.141 274.757 167.857 274.204C167.572 273.652 167.173 273.186 166.658 272.805C166.13 272.421 165.489 272.149 164.733 271.989C163.642 271.759 162.669 271.831 161.813 272.207C160.954 272.594 160.337 273.273 159.964 274.243L157.696 273.763C158.022 272.835 158.529 272.03 159.217 271.347C159.903 270.676 160.748 270.201 161.752 269.922C162.754 269.655 163.893 269.656 165.169 269.926ZM157.069 268.342L152.681 281.499L150.518 280.778L154.906 267.62L157.069 268.342ZM148.041 264.308C149.129 264.793 149.977 265.379 150.586 266.066C151.178 266.76 151.534 267.501 151.655 268.29C151.769 269.09 151.652 269.883 151.301 270.67L149.253 269.757C149.413 269.399 149.472 269.002 149.43 268.567C149.388 268.133 149.199 267.702 148.862 267.274C148.52 266.858 147.974 266.483 147.222 266.148C146.539 265.844 145.934 265.692 145.407 265.693C144.868 265.688 144.422 265.802 144.069 266.033C143.705 266.259 143.435 266.568 143.26 266.962C143.044 267.448 143.077 267.934 143.359 268.42C143.636 268.918 144.176 269.388 144.978 269.828L146.191 270.514C147.318 271.128 148.09 271.901 148.505 272.836C148.916 273.781 148.892 274.769 148.433 275.799C148.082 276.585 147.593 277.186 146.965 277.599C146.325 278.007 145.592 278.221 144.765 278.241C143.933 278.272 143.066 278.087 142.163 277.685C141.237 277.272 140.508 276.746 139.975 276.106C139.437 275.478 139.117 274.781 139.015 274.014C138.896 273.254 139.019 272.463 139.385 271.642L141.433 272.554C141.268 272.925 141.206 273.313 141.247 273.719C141.271 274.132 141.422 274.525 141.699 274.899C141.976 275.272 142.404 275.587 142.983 275.845C143.538 276.093 144.045 276.201 144.503 276.169C144.949 276.132 145.334 275.999 145.659 275.769C145.983 275.539 146.225 275.245 146.385 274.886C146.576 274.458 146.584 274.004 146.41 273.524C146.23 273.056 145.818 272.643 145.172 272.286L143.969 271.625C143.109 271.159 142.425 270.625 141.916 270.024C141.391 269.429 141.062 268.797 140.93 268.128C140.787 267.454 140.875 266.759 141.195 266.041C141.546 265.255 142.069 264.656 142.765 264.245C143.45 263.829 144.249 263.623 145.162 263.628C146.063 263.628 147.023 263.854 148.041 264.308ZM139.102 260.066L132.75 270.523L130.801 269.34L137.154 258.882L139.102 260.066ZM136.455 272.329L135.409 274.051L126.429 268.595L127.475 266.874L136.455 272.329ZM129.687 253.679L120.725 264.265L118.985 262.792L127.946 252.206L129.687 253.679ZM124.37 257.019L123.093 258.527L118.699 254.808L119.975 253.3L124.37 257.019ZM120.552 261.529L119.275 263.037L114.663 259.134L115.94 257.626L120.552 261.529ZM118.418 242.16C119.25 243.098 119.807 244.051 120.09 245.019C120.355 245.987 120.414 246.932 120.269 247.857C120.124 248.781 119.84 249.625 119.417 250.39C118.976 251.153 118.471 251.786 117.903 252.291L117.59 252.568C116.964 253.122 116.242 253.568 115.423 253.905C114.596 254.232 113.729 254.399 112.822 254.408C111.898 254.415 110.981 254.22 110.071 253.825C109.153 253.42 108.291 252.762 107.485 251.852C106.678 250.942 106.133 250.012 105.849 249.062C105.565 248.112 105.482 247.178 105.6 246.261C105.709 245.352 105.979 244.512 106.411 243.739C106.835 242.957 107.36 242.289 107.986 241.734L108.298 241.457C108.867 240.953 109.561 240.532 110.38 240.196C111.189 239.867 112.061 239.687 112.996 239.653C113.923 239.61 114.855 239.783 115.792 240.171C116.719 240.568 117.594 241.231 118.418 242.16ZM116.84 243.559C116.336 242.99 115.778 242.571 115.166 242.301C114.554 242.03 113.925 241.894 113.279 241.891C112.633 241.888 112.007 242.012 111.399 242.262C110.784 242.504 110.215 242.855 109.694 243.317C109.144 243.805 108.713 244.34 108.399 244.922C108.077 245.513 107.883 246.125 107.818 246.758C107.735 247.39 107.796 248.022 108 248.653C108.204 249.284 108.559 249.884 109.063 250.453C109.567 251.022 110.12 251.445 110.722 251.724C111.325 252.002 111.949 252.143 112.595 252.146C113.231 252.158 113.862 252.038 114.487 251.789C115.094 251.538 115.673 251.169 116.223 250.682C116.744 250.22 117.165 249.702 117.487 249.13C117.8 248.547 117.994 247.935 118.069 247.294C118.143 246.652 118.083 246.011 117.888 245.372C117.693 244.732 117.344 244.127 116.84 243.559ZM112.234 235.254L100.445 242.74L99.223 240.815L111.012 233.329L112.234 235.254ZM107.672 228.068L104.886 235.059L103.501 232.877L106.215 225.775L107.672 228.068ZM107.335 236.542L105.715 237.57L103.78 234.523C103.488 234.063 103.146 233.725 102.754 233.509C102.351 233.3 101.929 233.215 101.489 233.254C101.042 233.283 100.6 233.436 100.161 233.715C99.7335 233.986 99.4116 234.318 99.1956 234.711C98.9727 235.092 98.8703 235.51 98.8883 235.964C98.9063 236.417 99.0613 236.874 99.3532 237.334L101.288 240.381L99.6202 241.441L97.8481 238.65C97.2777 237.751 96.9211 236.883 96.7781 236.043C96.6245 235.21 96.705 234.439 97.0195 233.729C97.334 233.019 97.9189 232.393 98.7744 231.85L99.031 231.687C99.8865 231.144 100.706 230.886 101.489 230.914C102.265 230.931 102.997 231.186 103.685 231.68C104.367 232.162 104.993 232.853 105.563 233.751L107.335 236.542ZM105.696 224.373L92.9038 229.734L91.7141 226.895L98.3234 220.005L98.1985 219.707L88.6662 219.623L87.4617 216.749L100.254 211.388L101.128 213.473L90.2107 218.049L90.1576 217.824L99.8945 217.904L100.864 220.217L94.1088 227.251L93.9709 227.021L104.888 222.445L105.696 224.373ZM98.5497 203.043C98.8283 204.292 98.8278 205.395 98.5484 206.353C98.2538 207.301 97.7234 208.094 96.9573 208.732C96.1885 209.358 95.2292 209.799 94.0794 210.056L85.9571 211.868L85.4607 209.643L93.7684 207.789C94.4607 207.635 95.0423 207.362 95.5133 206.972C95.9842 206.581 96.3101 206.093 96.4909 205.508C96.6594 204.925 96.6596 204.257 96.4913 203.502C96.3231 202.748 96.0402 202.15 95.6428 201.706C95.2426 201.25 94.7464 200.946 94.1541 200.792C93.5618 200.639 92.9134 200.641 92.2087 200.798L83.9009 202.652L83.4045 200.426L91.5268 198.614C92.6765 198.358 93.7323 198.349 94.6943 198.589C95.6562 198.828 96.4734 199.321 97.1458 200.066C97.8032 200.802 98.2711 201.795 98.5497 203.043ZM96.6071 194.748L82.7855 195.906L82.5951 193.634L96.4167 192.476L96.6071 194.748ZM96.4484 192.854L94.4225 193.024L93.9068 186.871L95.9327 186.701L96.4484 192.854ZM95.9593 186.353L82.3154 180.887L82.4808 177.11L96.557 172.706L96.454 175.059L83.9237 178.904L84.401 177.993L84.3005 180.289L83.9071 179.283L96.059 184.076L95.9593 186.353ZM92.187 183.031L90.2445 182.223L90.4989 176.415L92.5055 175.761L92.187 183.031ZM97.294 169.649L85.2465 167.51L85.6451 165.265L97.6926 167.404L97.294 169.649ZM84.9031 171.617L82.9201 171.265L84.7571 160.92L86.7401 161.272L84.9031 171.617ZM98.8977 161.877L85.6241 157.854L86.28 155.69L99.5536 159.714L98.8977 161.877ZM99.4433 160.077L97.5523 159.504L99.4373 153.285L101.328 153.859L99.4433 160.077ZM93.643 158.319L91.7519 157.746L93.4826 152.036L95.3736 152.61L93.643 158.319ZM88.0608 156.627L86.1698 156.054L88.0051 149.999L89.8962 150.572L88.0608 156.627ZM103.101 150.156L101.193 149.257L102.544 146.387C102.874 145.688 103.059 145.012 103.1 144.359C103.13 143.701 103.036 143.083 102.819 142.504C102.601 141.926 102.269 141.412 101.822 140.964C101.369 140.499 100.827 140.118 100.197 139.821C99.5211 139.502 98.8652 139.319 98.2294 139.272C97.5991 139.213 96.9973 139.287 96.4242 139.493C95.8511 139.699 95.3319 140.029 94.8666 140.482C94.3898 140.929 93.9868 141.502 93.6576 142.201L92.3057 145.072L90.3977 144.173L91.6687 141.475C92.203 140.34 92.839 139.436 93.5767 138.761C94.3199 138.075 95.1159 137.589 95.9648 137.302C96.8136 137.016 97.6695 136.908 98.5325 136.979C99.3954 137.049 100.216 137.268 100.996 137.635L101.374 137.813C102.107 138.158 102.782 138.644 103.397 139.27C104.001 139.89 104.469 140.621 104.8 141.463C105.12 142.3 105.264 143.229 105.231 144.25C105.192 145.253 104.906 146.323 104.371 147.457L103.101 150.156ZM102.291 151.875L89.5882 145.892L90.5596 143.83L103.262 149.812L102.291 151.875Z" fill="#4949E9"/>
</svg>
